<?xml version="1.0" encoding="UTF-8" standalone="no"?>
<!DOCTYPE svg PUBLIC "-//W3C//DTD SVG 1.1//EN"
 "http://www.w3.org/Graphics/SVG/1.1/DTD/svg11.dtd">
<!-- Generated by graphviz version 5.0.0 (20220707.1540)
 -->
<!-- Title: dependencies Pages: 1 -->
<svg width="134pt" height="174pt"
 viewBox="0.00 0.00 134.00 173.80" xmlns="http://www.w3.org/2000/svg" xmlns:xlink="http://www.w3.org/1999/xlink">
<g id="graph0" class="graph" transform="scale(1 1) rotate(0) translate(4 169.8)">
<title>dependencies</title>
<polygon fill="white" stroke="transparent" points="-4,4 -4,-169.8 130,-169.8 130,4 -4,4"/>
<text text-anchor="middle" x="63" y="-8.2" font-family="sans-serif" font-size="14.00">dependencies</text>
<g id="clust1" class="cluster">
<title>cluster_CoreModule</title>
<polygon fill="none" stroke="black" stroke-dasharray="1,5" points="8,-32.8 8,-157.8 118,-157.8 118,-32.8 8,-32.8"/>
</g>
<g id="clust4" class="cluster">
<title>cluster_CoreModule_exports</title>
<polygon fill="none" stroke="black" points="16,-97.8 16,-149.8 110,-149.8 110,-97.8 16,-97.8"/>
</g>
<!-- UiModule  -->
<g id="node1" class="node">
<title>UiModule </title>
<polygon fill="#fb8072" stroke="black" points="101.55,-141.8 24.45,-141.8 24.45,-105.8 101.55,-105.8 101.55,-141.8"/>
<text text-anchor="middle" x="63" y="-119.6" font-family="Times,serif" font-size="14.00">UiModule </text>
</g>
<!-- CoreModule -->
<g id="node2" class="node">
<title>CoreModule</title>
<polygon fill="#8dd3c7" stroke="black" points="106.27,-76.8 103.27,-80.8 82.27,-80.8 79.27,-76.8 19.73,-76.8 19.73,-40.8 106.27,-40.8 106.27,-76.8"/>
<text text-anchor="middle" x="63" y="-54.6" font-family="Times,serif" font-size="14.00">CoreModule</text>
</g>
<!-- CoreModule&#45;&gt;UiModule  -->
<g id="edge1" class="edge">
<title>CoreModule&#45;&gt;UiModule </title>
<path fill="none" stroke="black" stroke-dasharray="5,2" d="M63,-76.91C63,-76.91 63,-95.79 63,-95.79"/>
<polygon fill="black" stroke="black" points="59.5,-95.79 63,-105.79 66.5,-95.79 59.5,-95.79"/>
</g>
</g>
</svg>
