<?xml version="1.0" encoding="UTF-8" standalone="no"?>
<!DOCTYPE svg PUBLIC "-//W3C//DTD SVG 1.1//EN"
 "http://www.w3.org/Graphics/SVG/1.1/DTD/svg11.dtd">
<!-- Generated by graphviz version 5.0.0 (20220707.1540)
 -->
<!-- Title: dependencies Pages: 1 -->
<svg width="154pt" height="247pt"
 viewBox="0.00 0.00 154.00 246.80" xmlns="http://www.w3.org/2000/svg" xmlns:xlink="http://www.w3.org/1999/xlink">
<g id="graph0" class="graph" transform="scale(1 1) rotate(0) translate(4 242.8)">
<title>dependencies</title>
<polygon fill="white" stroke="transparent" points="-4,4 -4,-242.8 150,-242.8 150,4 -4,4"/>
<text text-anchor="middle" x="73" y="-8.2" font-family="sans-serif" font-size="14.00">dependencies</text>
<g id="clust1" class="cluster">
<title>cluster_UiModule</title>
<polygon fill="none" stroke="black" stroke-dasharray="1,5" points="8,-32.8 8,-230.8 138,-230.8 138,-32.8 8,-32.8"/>
</g>
<g id="clust2" class="cluster">
<title>cluster_UiModule_declarations</title>
<polygon fill="none" stroke="black" points="17,-40.8 17,-92.8 129,-92.8 129,-40.8 17,-40.8"/>
</g>
<g id="clust5" class="cluster">
<title>cluster_UiModule_exports</title>
<polygon fill="none" stroke="black" points="16,-170.8 16,-222.8 130,-222.8 130,-170.8 16,-170.8"/>
</g>
<!-- UiComponent -->
<g id="node1" class="node">
<title>UiComponent</title>
<polygon fill="#ffffb3" stroke="black" points="120.83,-84.8 25.17,-84.8 25.17,-48.8 120.83,-48.8 120.83,-84.8"/>
<text text-anchor="middle" x="73" y="-62.6" font-family="Times,serif" font-size="14.00">UiComponent</text>
</g>
<!-- UiModule -->
<g id="node2" class="node">
<title>UiModule</title>
<polygon fill="#8dd3c7" stroke="black" points="109.55,-149.8 106.55,-153.8 85.55,-153.8 82.55,-149.8 36.45,-149.8 36.45,-113.8 109.55,-113.8 109.55,-149.8"/>
<text text-anchor="middle" x="73" y="-127.6" font-family="Times,serif" font-size="14.00">UiModule</text>
</g>
<!-- UiComponent&#45;&gt;UiModule -->
<g id="edge1" class="edge">
<title>UiComponent&#45;&gt;UiModule</title>
<path fill="none" stroke="black" d="M73,-84.91C73,-84.91 73,-103.79 73,-103.79"/>
<polygon fill="black" stroke="black" points="69.5,-103.79 73,-113.79 76.5,-103.79 69.5,-103.79"/>
</g>
<!-- UiComponent  -->
<g id="node3" class="node">
<title>UiComponent </title>
<polygon fill="#fb8072" stroke="black" points="122.33,-214.8 23.67,-214.8 23.67,-178.8 122.33,-178.8 122.33,-214.8"/>
<text text-anchor="middle" x="73" y="-192.6" font-family="Times,serif" font-size="14.00">UiComponent </text>
</g>
<!-- UiModule&#45;&gt;UiComponent  -->
<g id="edge2" class="edge">
<title>UiModule&#45;&gt;UiComponent </title>
<path fill="none" stroke="black" stroke-dasharray="5,2" d="M73,-149.91C73,-149.91 73,-168.79 73,-168.79"/>
<polygon fill="black" stroke="black" points="69.5,-168.79 73,-178.79 76.5,-168.79 69.5,-168.79"/>
</g>
</g>
</svg>
