<?xml version="1.0" encoding="UTF-8" standalone="no"?>
<!DOCTYPE svg PUBLIC "-//W3C//DTD SVG 1.1//EN"
 "http://www.w3.org/Graphics/SVG/1.1/DTD/svg11.dtd">
<!-- Generated by graphviz version 5.0.0 (20220707.1540)
 -->
<!-- Title: dependencies Pages: 1 -->
<svg width="963pt" height="174pt"
 viewBox="0.00 0.00 963.00 173.80" xmlns="http://www.w3.org/2000/svg" xmlns:xlink="http://www.w3.org/1999/xlink">
<g id="graph0" class="graph" transform="scale(1 1) rotate(0) translate(4 169.8)">
<title>dependencies</title>
<polygon fill="white" stroke="transparent" points="-4,4 -4,-169.8 959,-169.8 959,4 -4,4"/>
<text text-anchor="middle" x="477.5" y="-8.2" font-family="sans-serif" font-size="14.00">dependencies</text>
<g id="clust1" class="cluster">
<title>cluster_LoginModule</title>
<polygon fill="none" stroke="black" stroke-dasharray="1,5" points="8,-32.8 8,-157.8 947,-157.8 947,-32.8 8,-32.8"/>
</g>
<g id="clust7" class="cluster">
<title>cluster_LoginModule_imports</title>
<polygon fill="none" stroke="black" points="785,-40.8 785,-92.8 939,-92.8 939,-40.8 785,-40.8"/>
</g>
<g id="clust2" class="cluster">
<title>cluster_LoginModule_declarations</title>
<polygon fill="none" stroke="black" points="16,-40.8 16,-92.8 777,-92.8 777,-40.8 16,-40.8"/>
</g>
<!-- PageForgotPasswordComponent -->
<g id="node1" class="node">
<title>PageForgotPasswordComponent</title>
<polygon fill="#ffffb3" stroke="black" points="768.55,-84.8 569.45,-84.8 569.45,-48.8 768.55,-48.8 768.55,-84.8"/>
<text text-anchor="middle" x="669" y="-62.6" font-family="Times,serif" font-size="14.00">PageForgotPasswordComponent</text>
</g>
<!-- LoginModule -->
<g id="node5" class="node">
<title>LoginModule</title>
<polygon fill="#8dd3c7" stroke="black" points="501.49,-149.8 498.49,-153.8 477.49,-153.8 474.49,-149.8 408.51,-149.8 408.51,-113.8 501.49,-113.8 501.49,-149.8"/>
<text text-anchor="middle" x="455" y="-127.6" font-family="Times,serif" font-size="14.00">LoginModule</text>
</g>
<!-- PageForgotPasswordComponent&#45;&gt;LoginModule -->
<g id="edge1" class="edge">
<title>PageForgotPasswordComponent&#45;&gt;LoginModule</title>
<path fill="none" stroke="black" d="M669,-84.82C669,-102.17 669,-125.8 669,-125.8 669,-125.8 511.7,-125.8 511.7,-125.8"/>
<polygon fill="black" stroke="black" points="511.7,-122.3 501.7,-125.8 511.7,-129.3 511.7,-122.3"/>
</g>
<!-- PageResetPasswordComponent -->
<g id="node2" class="node">
<title>PageResetPasswordComponent</title>
<polygon fill="#ffffb3" stroke="black" points="551.82,-84.8 358.18,-84.8 358.18,-48.8 551.82,-48.8 551.82,-84.8"/>
<text text-anchor="middle" x="455" y="-62.6" font-family="Times,serif" font-size="14.00">PageResetPasswordComponent</text>
</g>
<!-- PageResetPasswordComponent&#45;&gt;LoginModule -->
<g id="edge2" class="edge">
<title>PageResetPasswordComponent&#45;&gt;LoginModule</title>
<path fill="none" stroke="black" d="M455,-84.91C455,-84.91 455,-103.79 455,-103.79"/>
<polygon fill="black" stroke="black" points="451.5,-103.79 455,-113.79 458.5,-103.79 451.5,-103.79"/>
</g>
<!-- PageSignInComponent -->
<g id="node3" class="node">
<title>PageSignInComponent</title>
<polygon fill="#ffffb3" stroke="black" points="339.88,-84.8 194.12,-84.8 194.12,-48.8 339.88,-48.8 339.88,-84.8"/>
<text text-anchor="middle" x="267" y="-62.6" font-family="Times,serif" font-size="14.00">PageSignInComponent</text>
</g>
<!-- PageSignInComponent&#45;&gt;LoginModule -->
<g id="edge3" class="edge">
<title>PageSignInComponent&#45;&gt;LoginModule</title>
<path fill="none" stroke="black" d="M267,-84.82C267,-102.17 267,-125.8 267,-125.8 267,-125.8 398.04,-125.8 398.04,-125.8"/>
<polygon fill="black" stroke="black" points="398.04,-129.3 408.04,-125.8 398.04,-122.3 398.04,-129.3"/>
</g>
<!-- PageSignUpComponent -->
<g id="node4" class="node">
<title>PageSignUpComponent</title>
<polygon fill="#ffffb3" stroke="black" points="175.83,-84.8 24.17,-84.8 24.17,-48.8 175.83,-48.8 175.83,-84.8"/>
<text text-anchor="middle" x="100" y="-62.6" font-family="Times,serif" font-size="14.00">PageSignUpComponent</text>
</g>
<!-- PageSignUpComponent&#45;&gt;LoginModule -->
<g id="edge4" class="edge">
<title>PageSignUpComponent&#45;&gt;LoginModule</title>
<path fill="none" stroke="black" d="M100,-85.08C100,-106.12 100,-137.8 100,-137.8 100,-137.8 398.22,-137.8 398.22,-137.8"/>
<polygon fill="black" stroke="black" points="398.22,-141.3 408.22,-137.8 398.22,-134.3 398.22,-141.3"/>
</g>
<!-- LoginRoutingModule -->
<g id="node6" class="node">
<title>LoginRoutingModule</title>
<polygon fill="#8dd3c7" stroke="black" points="931.11,-84.8 928.11,-88.8 907.11,-88.8 904.11,-84.8 792.89,-84.8 792.89,-48.8 931.11,-48.8 931.11,-84.8"/>
<text text-anchor="middle" x="862" y="-62.6" font-family="Times,serif" font-size="14.00">LoginRoutingModule</text>
</g>
<!-- LoginRoutingModule&#45;&gt;LoginModule -->
<g id="edge5" class="edge">
<title>LoginRoutingModule&#45;&gt;LoginModule</title>
<path fill="none" stroke="black" d="M862,-85.08C862,-106.12 862,-137.8 862,-137.8 862,-137.8 511.69,-137.8 511.69,-137.8"/>
<polygon fill="black" stroke="black" points="511.69,-134.3 501.69,-137.8 511.69,-141.3 511.69,-134.3"/>
</g>
</g>
</svg>
