<?xml version="1.0" encoding="UTF-8" standalone="no"?>
<!DOCTYPE svg PUBLIC "-//W3C//DTD SVG 1.1//EN"
 "http://www.w3.org/Graphics/SVG/1.1/DTD/svg11.dtd">
<!-- Generated by graphviz version 5.0.0 (20220707.1540)
 -->
<!-- Title: dependencies Pages: 1 -->
<svg width="3526pt" height="253pt"
 viewBox="0.00 0.00 3526.00 252.80" xmlns="http://www.w3.org/2000/svg" xmlns:xlink="http://www.w3.org/1999/xlink">
<g id="graph0" class="graph" transform="scale(1 1) rotate(0) translate(4 248.8)">
<title>dependencies</title>
<polygon fill="white" stroke="transparent" points="-4,4 -4,-248.8 3522,-248.8 3522,4 -4,4"/>
<text text-anchor="middle" x="1759" y="-8.2" font-family="sans-serif" font-size="14.00">dependencies</text>
<g id="clust1" class="cluster">
<title>cluster_AppModule</title>
<polygon fill="none" stroke="black" stroke-dasharray="1,5" points="8,-32.8 8,-236.8 403,-236.8 403,-32.8 8,-32.8"/>
</g>
<g id="clust2" class="cluster">
<title>cluster_AppModule_declarations</title>
<polygon fill="none" stroke="black" points="16,-40.8 16,-92.8 138,-92.8 138,-40.8 16,-40.8"/>
</g>
<g id="clust4" class="cluster">
<title>cluster_AppModule_imports</title>
<polygon fill="none" stroke="black" points="146,-40.8 146,-92.8 395,-92.8 395,-40.8 146,-40.8"/>
</g>
<g id="clust6" class="cluster">
<title>cluster_AppModule_bootstrap</title>
<polygon fill="none" stroke="black" points="156,-176.8 156,-228.8 280,-228.8 280,-176.8 156,-176.8"/>
</g>
<g id="clust14" class="cluster">
<title>cluster_ClientsModule</title>
<polygon fill="none" stroke="black" stroke-dasharray="1,5" points="529,-32.8 529,-160.8 1267,-160.8 1267,-32.8 529,-32.8"/>
</g>
<g id="clust15" class="cluster">
<title>cluster_ClientsModule_declarations</title>
<polygon fill="none" stroke="black" points="705,-40.8 705,-92.8 1259,-92.8 1259,-40.8 705,-40.8"/>
</g>
<g id="clust19" class="cluster">
<title>cluster_ClientsModule_imports</title>
<polygon fill="none" stroke="black" points="537,-40.8 537,-92.8 697,-92.8 697,-40.8 537,-40.8"/>
</g>
<g id="clust29" class="cluster">
<title>cluster_CoreModule</title>
<polygon fill="none" stroke="black" stroke-dasharray="1,5" points="411,-100.8 411,-168.8 521,-168.8 521,-100.8 411,-100.8"/>
</g>
<g id="clust32" class="cluster">
<title>cluster_CoreModule_exports</title>
<polygon fill="none" stroke="black" points="419,-108.8 419,-160.8 513,-160.8 513,-108.8 419,-108.8"/>
</g>
<g id="clust41" class="cluster">
<title>cluster_LoginModule</title>
<polygon fill="none" stroke="black" stroke-dasharray="1,5" points="1275,-32.8 1275,-160.8 2214,-160.8 2214,-32.8 1275,-32.8"/>
</g>
<g id="clust42" class="cluster">
<title>cluster_LoginModule_declarations</title>
<polygon fill="none" stroke="black" points="1445,-40.8 1445,-92.8 2206,-92.8 2206,-40.8 1445,-40.8"/>
</g>
<g id="clust47" class="cluster">
<title>cluster_LoginModule_imports</title>
<polygon fill="none" stroke="black" points="1283,-40.8 1283,-92.8 1437,-92.8 1437,-40.8 1283,-40.8"/>
</g>
<g id="clust57" class="cluster">
<title>cluster_OrdersModule</title>
<polygon fill="none" stroke="black" stroke-dasharray="1,5" points="2222,-32.8 2222,-160.8 2954,-160.8 2954,-32.8 2222,-32.8"/>
</g>
<g id="clust58" class="cluster">
<title>cluster_OrdersModule_declarations</title>
<polygon fill="none" stroke="black" points="2396,-40.8 2396,-92.8 2946,-92.8 2946,-40.8 2396,-40.8"/>
</g>
<g id="clust62" class="cluster">
<title>cluster_OrdersModule_imports</title>
<polygon fill="none" stroke="black" points="2230,-40.8 2230,-92.8 2388,-92.8 2388,-40.8 2230,-40.8"/>
</g>
<g id="clust72" class="cluster">
<title>cluster_PageNotFoundModule</title>
<polygon fill="none" stroke="black" stroke-dasharray="1,5" points="2962,-32.8 2962,-160.8 3372,-160.8 3372,-32.8 2962,-32.8"/>
</g>
<g id="clust73" class="cluster">
<title>cluster_PageNotFoundModule_declarations</title>
<polygon fill="none" stroke="black" points="3182,-40.8 3182,-92.8 3364,-92.8 3364,-40.8 3182,-40.8"/>
</g>
<g id="clust75" class="cluster">
<title>cluster_PageNotFoundModule_imports</title>
<polygon fill="none" stroke="black" points="2970,-40.8 2970,-92.8 3174,-92.8 3174,-40.8 2970,-40.8"/>
</g>
<g id="clust97" class="cluster">
<title>cluster_UiModule</title>
<polygon fill="none" stroke="black" stroke-dasharray="1,5" points="3380,-32.8 3380,-236.8 3510,-236.8 3510,-32.8 3380,-32.8"/>
</g>
<g id="clust98" class="cluster">
<title>cluster_UiModule_declarations</title>
<polygon fill="none" stroke="black" points="3389,-40.8 3389,-92.8 3501,-92.8 3501,-40.8 3389,-40.8"/>
</g>
<g id="clust101" class="cluster">
<title>cluster_UiModule_exports</title>
<polygon fill="none" stroke="black" points="3388,-176.8 3388,-228.8 3502,-228.8 3502,-176.8 3388,-176.8"/>
</g>
<!-- AppComponent -->
<g id="node1" class="node">
<title>AppComponent</title>
<polygon fill="#ffffb3" stroke="black" points="129.94,-84.8 24.06,-84.8 24.06,-48.8 129.94,-48.8 129.94,-84.8"/>
<text text-anchor="middle" x="77" y="-62.6" font-family="Times,serif" font-size="14.00">AppComponent</text>
</g>
<!-- AppModule -->
<g id="node2" class="node">
<title>AppModule</title>
<polygon fill="#8dd3c7" stroke="black" points="259.66,-152.8 256.66,-156.8 235.66,-156.8 232.66,-152.8 176.34,-152.8 176.34,-116.8 259.66,-116.8 259.66,-152.8"/>
<text text-anchor="middle" x="218" y="-130.6" font-family="Times,serif" font-size="14.00">AppModule</text>
</g>
<!-- AppComponent&#45;&gt;AppModule -->
<g id="edge1" class="edge">
<title>AppComponent&#45;&gt;AppModule</title>
<path fill="none" stroke="black" d="M77,-85.02C77,-105.17 77,-134.8 77,-134.8 77,-134.8 166.08,-134.8 166.08,-134.8"/>
<polygon fill="black" stroke="black" points="166.08,-138.3 176.08,-134.8 166.08,-131.3 166.08,-138.3"/>
</g>
<!-- AppComponent  -->
<g id="node5" class="node">
<title>AppComponent </title>
<polygon fill="#80b1d3" stroke="black" points="272.44,-220.8 163.56,-220.8 163.56,-184.8 272.44,-184.8 272.44,-220.8"/>
<text text-anchor="middle" x="218" y="-198.6" font-family="Times,serif" font-size="14.00">AppComponent </text>
</g>
<!-- AppModule&#45;&gt;AppComponent  -->
<g id="edge4" class="edge">
<title>AppModule&#45;&gt;AppComponent </title>
<path fill="none" stroke="black" stroke-dasharray="1,5" d="M218,-153.02C218,-153.02 218,-174.53 218,-174.53"/>
<polygon fill="black" stroke="black" points="214.5,-174.53 218,-184.53 221.5,-174.53 214.5,-174.53"/>
</g>
<!-- AppRoutingModule -->
<g id="node3" class="node">
<title>AppRoutingModule</title>
<polygon fill="#8dd3c7" stroke="black" points="282.28,-84.8 279.28,-88.8 258.28,-88.8 255.28,-84.8 153.72,-84.8 153.72,-48.8 282.28,-48.8 282.28,-84.8"/>
<text text-anchor="middle" x="218" y="-62.6" font-family="Times,serif" font-size="14.00">AppRoutingModule</text>
</g>
<!-- AppRoutingModule&#45;&gt;AppModule -->
<g id="edge2" class="edge">
<title>AppRoutingModule&#45;&gt;AppModule</title>
<path fill="none" stroke="black" d="M218,-85.02C218,-85.02 218,-106.53 218,-106.53"/>
<polygon fill="black" stroke="black" points="214.5,-106.53 218,-116.53 221.5,-106.53 214.5,-106.53"/>
</g>
<!-- CoreModule -->
<g id="node4" class="node">
<title>CoreModule</title>
<polygon fill="#8dd3c7" stroke="black" points="387.27,-84.8 384.27,-88.8 363.27,-88.8 360.27,-84.8 300.73,-84.8 300.73,-48.8 387.27,-48.8 387.27,-84.8"/>
<text text-anchor="middle" x="344" y="-62.6" font-family="Times,serif" font-size="14.00">CoreModule</text>
</g>
<!-- CoreModule&#45;&gt;AppModule -->
<g id="edge3" class="edge">
<title>CoreModule&#45;&gt;AppModule</title>
<path fill="none" stroke="black" d="M344,-85.02C344,-105.17 344,-134.8 344,-134.8 344,-134.8 269.96,-134.8 269.96,-134.8"/>
<polygon fill="black" stroke="black" points="269.96,-131.3 259.96,-134.8 269.96,-138.3 269.96,-131.3"/>
</g>
<!-- UiModule  -->
<g id="node11" class="node">
<title>UiModule </title>
<polygon fill="#fb8072" stroke="black" points="504.55,-152.8 427.45,-152.8 427.45,-116.8 504.55,-116.8 504.55,-152.8"/>
<text text-anchor="middle" x="466" y="-130.6" font-family="Times,serif" font-size="14.00">UiModule </text>
</g>
<!-- CoreModule&#45;&gt;UiModule  -->
<g id="edge9" class="edge">
<title>CoreModule&#45;&gt;UiModule </title>
<path fill="none" stroke="black" stroke-dasharray="5,2" d="M387.36,-66.8C422.42,-66.8 466,-66.8 466,-66.8 466,-66.8 466,-106.58 466,-106.58"/>
<polygon fill="black" stroke="black" points="462.5,-106.58 466,-116.58 469.5,-106.58 462.5,-106.58"/>
</g>
<!-- PageAddClientComponent -->
<g id="node6" class="node">
<title>PageAddClientComponent</title>
<polygon fill="#ffffb3" stroke="black" points="1251.38,-84.8 1084.62,-84.8 1084.62,-48.8 1251.38,-48.8 1251.38,-84.8"/>
<text text-anchor="middle" x="1168" y="-62.6" font-family="Times,serif" font-size="14.00">PageAddClientComponent</text>
</g>
<!-- ClientsModule -->
<g id="node9" class="node">
<title>ClientsModule</title>
<polygon fill="#8dd3c7" stroke="black" points="940.72,-152.8 937.72,-156.8 916.72,-156.8 913.72,-152.8 841.28,-152.8 841.28,-116.8 940.72,-116.8 940.72,-152.8"/>
<text text-anchor="middle" x="891" y="-130.6" font-family="Times,serif" font-size="14.00">ClientsModule</text>
</g>
<!-- PageAddClientComponent&#45;&gt;ClientsModule -->
<g id="edge5" class="edge">
<title>PageAddClientComponent&#45;&gt;ClientsModule</title>
<path fill="none" stroke="black" d="M1168,-84.82C1168,-102.17 1168,-125.8 1168,-125.8 1168,-125.8 950.84,-125.8 950.84,-125.8"/>
<polygon fill="black" stroke="black" points="950.84,-122.3 940.84,-125.8 950.84,-129.3 950.84,-122.3"/>
</g>
<!-- PageEditClientComponent -->
<g id="node7" class="node">
<title>PageEditClientComponent</title>
<polygon fill="#ffffb3" stroke="black" points="1067.1,-84.8 900.9,-84.8 900.9,-48.8 1067.1,-48.8 1067.1,-84.8"/>
<text text-anchor="middle" x="984" y="-62.6" font-family="Times,serif" font-size="14.00">PageEditClientComponent</text>
</g>
<!-- PageEditClientComponent&#45;&gt;ClientsModule -->
<g id="edge6" class="edge">
<title>PageEditClientComponent&#45;&gt;ClientsModule</title>
<path fill="none" stroke="black" d="M920.78,-85.02C920.78,-85.02 920.78,-106.53 920.78,-106.53"/>
<polygon fill="black" stroke="black" points="917.28,-106.53 920.78,-116.53 924.28,-106.53 917.28,-106.53"/>
</g>
<!-- PageListClientsComponent -->
<g id="node8" class="node">
<title>PageListClientsComponent</title>
<polygon fill="#ffffb3" stroke="black" points="882.99,-84.8 713.01,-84.8 713.01,-48.8 882.99,-48.8 882.99,-84.8"/>
<text text-anchor="middle" x="798" y="-62.6" font-family="Times,serif" font-size="14.00">PageListClientsComponent</text>
</g>
<!-- PageListClientsComponent&#45;&gt;ClientsModule -->
<g id="edge7" class="edge">
<title>PageListClientsComponent&#45;&gt;ClientsModule</title>
<path fill="none" stroke="black" d="M862.19,-85.02C862.19,-85.02 862.19,-106.53 862.19,-106.53"/>
<polygon fill="black" stroke="black" points="858.69,-106.53 862.19,-116.53 865.69,-106.53 858.69,-106.53"/>
</g>
<!-- ClientsRoutingModule -->
<g id="node10" class="node">
<title>ClientsRoutingModule</title>
<polygon fill="#8dd3c7" stroke="black" points="689.34,-84.8 686.34,-88.8 665.34,-88.8 662.34,-84.8 544.66,-84.8 544.66,-48.8 689.34,-48.8 689.34,-84.8"/>
<text text-anchor="middle" x="617" y="-62.6" font-family="Times,serif" font-size="14.00">ClientsRoutingModule</text>
</g>
<!-- ClientsRoutingModule&#45;&gt;ClientsModule -->
<g id="edge8" class="edge">
<title>ClientsRoutingModule&#45;&gt;ClientsModule</title>
<path fill="none" stroke="black" d="M617,-85.02C617,-105.17 617,-134.8 617,-134.8 617,-134.8 831.38,-134.8 831.38,-134.8"/>
<polygon fill="black" stroke="black" points="831.38,-138.3 841.38,-134.8 831.38,-131.3 831.38,-138.3"/>
</g>
<!-- PageForgotPasswordComponent -->
<g id="node12" class="node">
<title>PageForgotPasswordComponent</title>
<polygon fill="#ffffb3" stroke="black" points="2197.55,-84.8 1998.45,-84.8 1998.45,-48.8 2197.55,-48.8 2197.55,-84.8"/>
<text text-anchor="middle" x="2098" y="-62.6" font-family="Times,serif" font-size="14.00">PageForgotPasswordComponent</text>
</g>
<!-- LoginModule -->
<g id="node16" class="node">
<title>LoginModule</title>
<polygon fill="#8dd3c7" stroke="black" points="1742.49,-152.8 1739.49,-156.8 1718.49,-156.8 1715.49,-152.8 1649.51,-152.8 1649.51,-116.8 1742.49,-116.8 1742.49,-152.8"/>
<text text-anchor="middle" x="1696" y="-130.6" font-family="Times,serif" font-size="14.00">LoginModule</text>
</g>
<!-- PageForgotPasswordComponent&#45;&gt;LoginModule -->
<g id="edge10" class="edge">
<title>PageForgotPasswordComponent&#45;&gt;LoginModule</title>
<path fill="none" stroke="black" d="M2098,-85.05C2098,-107.82 2098,-143.8 2098,-143.8 2098,-143.8 1752.51,-143.8 1752.51,-143.8"/>
<polygon fill="black" stroke="black" points="1752.51,-140.3 1742.51,-143.8 1752.51,-147.3 1752.51,-140.3"/>
</g>
<!-- PageResetPasswordComponent -->
<g id="node13" class="node">
<title>PageResetPasswordComponent</title>
<polygon fill="#ffffb3" stroke="black" points="1980.82,-84.8 1787.18,-84.8 1787.18,-48.8 1980.82,-48.8 1980.82,-84.8"/>
<text text-anchor="middle" x="1884" y="-62.6" font-family="Times,serif" font-size="14.00">PageResetPasswordComponent</text>
</g>
<!-- PageResetPasswordComponent&#45;&gt;LoginModule -->
<g id="edge11" class="edge">
<title>PageResetPasswordComponent&#45;&gt;LoginModule</title>
<path fill="none" stroke="black" d="M1884,-85.02C1884,-105.17 1884,-134.8 1884,-134.8 1884,-134.8 1752.96,-134.8 1752.96,-134.8"/>
<polygon fill="black" stroke="black" points="1752.96,-131.3 1742.96,-134.8 1752.96,-138.3 1752.96,-131.3"/>
</g>
<!-- PageSignInComponent -->
<g id="node14" class="node">
<title>PageSignInComponent</title>
<polygon fill="#ffffb3" stroke="black" points="1768.88,-84.8 1623.12,-84.8 1623.12,-48.8 1768.88,-48.8 1768.88,-84.8"/>
<text text-anchor="middle" x="1696" y="-62.6" font-family="Times,serif" font-size="14.00">PageSignInComponent</text>
</g>
<!-- PageSignInComponent&#45;&gt;LoginModule -->
<g id="edge12" class="edge">
<title>PageSignInComponent&#45;&gt;LoginModule</title>
<path fill="none" stroke="black" d="M1696,-85.02C1696,-85.02 1696,-106.53 1696,-106.53"/>
<polygon fill="black" stroke="black" points="1692.5,-106.53 1696,-116.53 1699.5,-106.53 1692.5,-106.53"/>
</g>
<!-- PageSignUpComponent -->
<g id="node15" class="node">
<title>PageSignUpComponent</title>
<polygon fill="#ffffb3" stroke="black" points="1604.83,-84.8 1453.17,-84.8 1453.17,-48.8 1604.83,-48.8 1604.83,-84.8"/>
<text text-anchor="middle" x="1529" y="-62.6" font-family="Times,serif" font-size="14.00">PageSignUpComponent</text>
</g>
<!-- PageSignUpComponent&#45;&gt;LoginModule -->
<g id="edge13" class="edge">
<title>PageSignUpComponent&#45;&gt;LoginModule</title>
<path fill="none" stroke="black" d="M1529,-85.02C1529,-105.17 1529,-134.8 1529,-134.8 1529,-134.8 1639.48,-134.8 1639.48,-134.8"/>
<polygon fill="black" stroke="black" points="1639.48,-138.3 1649.48,-134.8 1639.48,-131.3 1639.48,-138.3"/>
</g>
<!-- LoginRoutingModule -->
<g id="node17" class="node">
<title>LoginRoutingModule</title>
<polygon fill="#8dd3c7" stroke="black" points="1429.11,-84.8 1426.11,-88.8 1405.11,-88.8 1402.11,-84.8 1290.89,-84.8 1290.89,-48.8 1429.11,-48.8 1429.11,-84.8"/>
<text text-anchor="middle" x="1360" y="-62.6" font-family="Times,serif" font-size="14.00">LoginRoutingModule</text>
</g>
<!-- LoginRoutingModule&#45;&gt;LoginModule -->
<g id="edge14" class="edge">
<title>LoginRoutingModule&#45;&gt;LoginModule</title>
<path fill="none" stroke="black" d="M1360,-85.05C1360,-107.82 1360,-143.8 1360,-143.8 1360,-143.8 1639.28,-143.8 1639.28,-143.8"/>
<polygon fill="black" stroke="black" points="1639.28,-147.3 1649.28,-143.8 1639.28,-140.3 1639.28,-147.3"/>
</g>
<!-- PageAddOrderComponent -->
<g id="node18" class="node">
<title>PageAddOrderComponent</title>
<polygon fill="#ffffb3" stroke="black" points="2937.8,-84.8 2772.2,-84.8 2772.2,-48.8 2937.8,-48.8 2937.8,-84.8"/>
<text text-anchor="middle" x="2855" y="-62.6" font-family="Times,serif" font-size="14.00">PageAddOrderComponent</text>
</g>
<!-- OrdersModule -->
<g id="node21" class="node">
<title>OrdersModule</title>
<polygon fill="#8dd3c7" stroke="black" points="2628.65,-152.8 2625.65,-156.8 2604.65,-156.8 2601.65,-152.8 2531.35,-152.8 2531.35,-116.8 2628.65,-116.8 2628.65,-152.8"/>
<text text-anchor="middle" x="2580" y="-130.6" font-family="Times,serif" font-size="14.00">OrdersModule</text>
</g>
<!-- PageAddOrderComponent&#45;&gt;OrdersModule -->
<g id="edge15" class="edge">
<title>PageAddOrderComponent&#45;&gt;OrdersModule</title>
<path fill="none" stroke="black" d="M2855,-85.02C2855,-105.17 2855,-134.8 2855,-134.8 2855,-134.8 2638.85,-134.8 2638.85,-134.8"/>
<polygon fill="black" stroke="black" points="2638.85,-131.3 2628.85,-134.8 2638.85,-138.3 2638.85,-131.3"/>
</g>
<!-- PageEditOrderComponent -->
<g id="node19" class="node">
<title>PageEditOrderComponent</title>
<polygon fill="#ffffb3" stroke="black" points="2754.03,-84.8 2589.97,-84.8 2589.97,-48.8 2754.03,-48.8 2754.03,-84.8"/>
<text text-anchor="middle" x="2672" y="-62.6" font-family="Times,serif" font-size="14.00">PageEditOrderComponent</text>
</g>
<!-- PageEditOrderComponent&#45;&gt;OrdersModule -->
<g id="edge16" class="edge">
<title>PageEditOrderComponent&#45;&gt;OrdersModule</title>
<path fill="none" stroke="black" d="M2609.28,-85.02C2609.28,-85.02 2609.28,-106.53 2609.28,-106.53"/>
<polygon fill="black" stroke="black" points="2605.78,-106.53 2609.28,-116.53 2612.78,-106.53 2605.78,-106.53"/>
</g>
<!-- PageListOrdersComponent -->
<g id="node20" class="node">
<title>PageListOrdersComponent</title>
<polygon fill="#ffffb3" stroke="black" points="2572.42,-84.8 2403.58,-84.8 2403.58,-48.8 2572.42,-48.8 2572.42,-84.8"/>
<text text-anchor="middle" x="2488" y="-62.6" font-family="Times,serif" font-size="14.00">PageListOrdersComponent</text>
</g>
<!-- PageListOrdersComponent&#45;&gt;OrdersModule -->
<g id="edge17" class="edge">
<title>PageListOrdersComponent&#45;&gt;OrdersModule</title>
<path fill="none" stroke="black" d="M2551.69,-85.02C2551.69,-85.02 2551.69,-106.53 2551.69,-106.53"/>
<polygon fill="black" stroke="black" points="2548.19,-106.53 2551.69,-116.53 2555.19,-106.53 2548.19,-106.53"/>
</g>
<!-- OrdersRoutingModule -->
<g id="node22" class="node">
<title>OrdersRoutingModule</title>
<polygon fill="#8dd3c7" stroke="black" points="2380.27,-84.8 2377.27,-88.8 2356.27,-88.8 2353.27,-84.8 2237.73,-84.8 2237.73,-48.8 2380.27,-48.8 2380.27,-84.8"/>
<text text-anchor="middle" x="2309" y="-62.6" font-family="Times,serif" font-size="14.00">OrdersRoutingModule</text>
</g>
<!-- OrdersRoutingModule&#45;&gt;OrdersModule -->
<g id="edge18" class="edge">
<title>OrdersRoutingModule&#45;&gt;OrdersModule</title>
<path fill="none" stroke="black" d="M2309,-84.82C2309,-102.17 2309,-125.8 2309,-125.8 2309,-125.8 2521.24,-125.8 2521.24,-125.8"/>
<polygon fill="black" stroke="black" points="2521.24,-129.3 2531.24,-125.8 2521.24,-122.3 2521.24,-129.3"/>
</g>
<!-- PageNotFoundComponent -->
<g id="node23" class="node">
<title>PageNotFoundComponent</title>
<polygon fill="#ffffb3" stroke="black" points="3355.83,-84.8 3190.17,-84.8 3190.17,-48.8 3355.83,-48.8 3355.83,-84.8"/>
<text text-anchor="middle" x="3273" y="-62.6" font-family="Times,serif" font-size="14.00">PageNotFoundComponent</text>
</g>
<!-- PageNotFoundModule -->
<g id="node24" class="node">
<title>PageNotFoundModule</title>
<polygon fill="#8dd3c7" stroke="black" points="3243.55,-152.8 3240.55,-156.8 3219.55,-156.8 3216.55,-152.8 3100.45,-152.8 3100.45,-116.8 3243.55,-116.8 3243.55,-152.8"/>
<text text-anchor="middle" x="3172" y="-130.6" font-family="Times,serif" font-size="14.00">PageNotFoundModule</text>
</g>
<!-- PageNotFoundComponent&#45;&gt;PageNotFoundModule -->
<g id="edge19" class="edge">
<title>PageNotFoundComponent&#45;&gt;PageNotFoundModule</title>
<path fill="none" stroke="black" d="M3217.06,-85.02C3217.06,-85.02 3217.06,-106.53 3217.06,-106.53"/>
<polygon fill="black" stroke="black" points="3213.56,-106.53 3217.06,-116.53 3220.56,-106.53 3213.56,-106.53"/>
</g>
<!-- PageNotFoundRoutingModule -->
<g id="node25" class="node">
<title>PageNotFoundRoutingModule</title>
<polygon fill="#8dd3c7" stroke="black" points="3166.17,-84.8 3163.17,-88.8 3142.17,-88.8 3139.17,-84.8 2977.83,-84.8 2977.83,-48.8 3166.17,-48.8 3166.17,-84.8"/>
<text text-anchor="middle" x="3072" y="-62.6" font-family="Times,serif" font-size="14.00">PageNotFoundRoutingModule</text>
</g>
<!-- PageNotFoundRoutingModule&#45;&gt;PageNotFoundModule -->
<g id="edge20" class="edge">
<title>PageNotFoundRoutingModule&#45;&gt;PageNotFoundModule</title>
<path fill="none" stroke="black" d="M3133.28,-85.02C3133.28,-85.02 3133.28,-106.53 3133.28,-106.53"/>
<polygon fill="black" stroke="black" points="3129.78,-106.53 3133.28,-116.53 3136.78,-106.53 3129.78,-106.53"/>
</g>
<!-- UiComponent -->
<g id="node26" class="node">
<title>UiComponent</title>
<polygon fill="#ffffb3" stroke="black" points="3492.83,-84.8 3397.17,-84.8 3397.17,-48.8 3492.83,-48.8 3492.83,-84.8"/>
<text text-anchor="middle" x="3445" y="-62.6" font-family="Times,serif" font-size="14.00">UiComponent</text>
</g>
<!-- UiModule -->
<g id="node27" class="node">
<title>UiModule</title>
<polygon fill="#8dd3c7" stroke="black" points="3481.55,-152.8 3478.55,-156.8 3457.55,-156.8 3454.55,-152.8 3408.45,-152.8 3408.45,-116.8 3481.55,-116.8 3481.55,-152.8"/>
<text text-anchor="middle" x="3445" y="-130.6" font-family="Times,serif" font-size="14.00">UiModule</text>
</g>
<!-- UiComponent&#45;&gt;UiModule -->
<g id="edge21" class="edge">
<title>UiComponent&#45;&gt;UiModule</title>
<path fill="none" stroke="black" d="M3445,-85.02C3445,-85.02 3445,-106.53 3445,-106.53"/>
<polygon fill="black" stroke="black" points="3441.5,-106.53 3445,-116.53 3448.5,-106.53 3441.5,-106.53"/>
</g>
<!-- UiComponent  -->
<g id="node28" class="node">
<title>UiComponent </title>
<polygon fill="#fb8072" stroke="black" points="3494.33,-220.8 3395.67,-220.8 3395.67,-184.8 3494.33,-184.8 3494.33,-220.8"/>
<text text-anchor="middle" x="3445" y="-198.6" font-family="Times,serif" font-size="14.00">UiComponent </text>
</g>
<!-- UiModule&#45;&gt;UiComponent  -->
<g id="edge22" class="edge">
<title>UiModule&#45;&gt;UiComponent </title>
<path fill="none" stroke="black" stroke-dasharray="5,2" d="M3445,-153.02C3445,-153.02 3445,-174.53 3445,-174.53"/>
<polygon fill="black" stroke="black" points="3441.5,-174.53 3445,-184.53 3448.5,-174.53 3441.5,-174.53"/>
</g>
</g>
</svg>
